<svg xmlns="http://www.w3.org/2000/svg" width="245.773" height="322.396" viewBox="0 0 245.773 322.396">
  <g id="Group_4827" data-name="Group 4827" transform="translate(-1124.983 -1697.699)">
    <path id="Path_3522" data-name="Path 3522" d="M-700.705-3764.817c-16.8-1.121-33.441,3.15-47.671,22.083-93.078,123.847-72.993,112.933-156.994,127.317s-25,124.386,61,134.386c75.68,8.8,90.224-12.882,144.125-7.98Z" transform="translate(2071 5499)" fill="#f2f6ff"/>
    <g id="Group_4453" data-name="Group 4453" transform="translate(991.612 1551.826) rotate(-14)">
      <path id="Path_3523" data-name="Path 3523" d="M163.867,232.522l-6.548-5.366-55.6,66.815,7.56,6.2Z" transform="translate(57.205 20.595)" fill="#52d8d9"/>
      <path id="Path_3524" data-name="Path 3524" d="M149.226,306.657,87.2,255.829l-8.8,6.355,66.325,54.351Z" transform="translate(23.58 61.939)" fill="#8ae476"/>
      <path id="Path_3525" data-name="Path 3525" d="M127.743,262.34,115.986,252.7,91.909,280.232l13.574,11.124Z" transform="translate(43.059 57.435)" fill="#5b8cff"/>
      <path id="Path_3526" data-name="Path 3526" d="M163.436,223.995l-13.575-11.123-27.22,35.071,11.758,9.633Zm-6.036.225-13.562,15.194-5.24-4.3,12.232-16.285Z" transform="translate(87.372 0)" fill="#8ae476"/>
      <path id="Path_3527" data-name="Path 3527" d="M162.893,322.841,80.62,255.421l-8.826,4.955,87.975,72.093Z" transform="translate(14.055 61.351)" fill="#8ae476"/>
      <path id="Path_3528" data-name="Path 3528" d="M72.148,258.024l2.33-1.308,12.61,8.65,6.338-.9-5.126-4.2,1.918-1.385,7.954,5.577,4.216-2.341L119.212,275.9l-2.877,5.469,38.576,31.313-.5,1.754-41.293-33.7-1.644,4.6,48.64,42.626-.852,2.628Z" transform="translate(14.565 63.218)" fill="#83cf72" opacity="0.9"/>
      <path id="Path_3529" data-name="Path 3529" d="M93.15,278.572l21.273-24.645,3.351,2.746L98.214,282.722Z" transform="translate(44.847 59.198)" fill="#3266e1" opacity="0.3"/>
      <path id="Path_3530" data-name="Path 3530" d="M123.716,234.665l10.279-12.543,3.78,3.1L128,238.173Z" transform="translate(88.92 13.337)" fill="#83d072"/>
      <path id="Path_3531" data-name="Path 3531" d="M103.776,288.383l48.578-59.28,1.468,1.2-47.481,59.6Z" transform="translate(60.169 23.403)" fill="#3266e1" opacity="0.3"/>
      <path id="Path_3532" data-name="Path 3532" d="M173.683,329.335,86.041,257.514c-7.912,8.517-13.658,11.919-23.994,18.449q47.423,41.767,98.265,80.524C164,345.344,166.4,339.117,173.683,329.335Z" transform="translate(0 64.369)" fill="#5b8cff"/>
      <g id="Group_4452" data-name="Group 4452" transform="translate(73.199 334.105)">
        <path id="Path_3533" data-name="Path 3533" d="M72.436,278.7c-.615-.525-1.216-1.06-1.829-1.582,1.336-1.341,2.977-2.852,4.522-4.156,2.461-2.1,4.647-3.712,4.647-3.712s-1.729,2.093-3.682,4.632C74.863,275.459,73.557,277.217,72.436,278.7Z" transform="translate(-60.856 -252.815)" fill="#22757d"/>
        <path id="Path_3534" data-name="Path 3534" d="M77.764,270.02a76.986,76.986,0,0,0,7.426-7.5,67.8,67.8,0,0,1-6.486,8.447,66.632,66.632,0,0,1-10.061,9.179l-2.029-1.756A91.746,91.746,0,0,0,77.764,270.02Z" transform="translate(-66.614 -262.519)" fill="#22757d"/>
        <path id="Path_3535" data-name="Path 3535" d="M91.056,275.161s-5.895,7.714-9.975,12.576c-.635-.523-1.26-1.055-1.895-1.58C83.716,281.715,91.056,275.161,91.056,275.161Z" transform="translate(-48.486 -244.29)" fill="#22757d"/>
        <path id="Path_3536" data-name="Path 3536" d="M91.006,284.522a107.258,107.258,0,0,0-6.437,11.518c-.632-.518-1.28-1.021-1.912-1.538a86.1,86.1,0,0,1,7.265-10.754,88,88,0,0,1,8.639-9.514A98.738,98.738,0,0,0,91.006,284.522Z" transform="translate(-43.482 -245.627)" fill="#22757d"/>
        <path id="Path_3537" data-name="Path 3537" d="M98.091,305.875a67.044,67.044,0,0,1,5.1-9.77,68.812,68.812,0,0,1,6.688-9.013,77.392,77.392,0,0,0-5.524,9.658,84.109,84.109,0,0,0-4.283,10.664C99.407,306.9,98.75,306.385,98.091,305.875Z" transform="translate(-21.227 -227.087)" fill="#22757d"/>
        <path id="Path_3538" data-name="Path 3538" d="M91.522,280.454a43.83,43.83,0,0,0-2.588,4.881,54.272,54.272,0,0,0-2.229,5.829c-.667-.537-1.336-1.072-2-1.609a32.345,32.345,0,0,1,3.087-4.906A34.416,34.416,0,0,1,91.522,280.454Z" transform="translate(-40.53 -236.658)" fill="#22757d"/>
      </g>
    </g>
    <ellipse id="Ellipse_167" data-name="Ellipse 167" cx="64" cy="8" rx="64" ry="8" transform="translate(1134 1958)" fill="#5b8cff" opacity="0.08"/>
    <path id="Path_3539" data-name="Path 3539" d="M215.922,23.078A15.563,15.563,0,0,0,231.485,7.515a15.563,15.563,0,0,0,15.563,15.563,15.563,15.563,0,0,0-15.563,15.563A15.563,15.563,0,0,0,215.922,23.078Z" transform="translate(975.599 1694.488)" fill="#52d8d9"/>
    <path id="Path_3540" data-name="Path 3540" d="M0,10.111A10.111,10.111,0,0,0,10.111,0,10.111,10.111,0,0,0,20.222,10.111,10.111,10.111,0,0,0,10.111,20.222,10.111,10.111,0,0,0,0,10.111Z" transform="matrix(0.966, 0.259, -0.259, 0.966, 1283.458, 1793.644)" fill="#52d8d9" opacity="0.7"/>
  </g>
</svg>
