<svg xmlns="http://www.w3.org/2000/svg" width="297.843" height="527.15" viewBox="0 0 297.843 527.15">
  <g id="Group_4827" data-name="Group 4827" transform="translate(-1070.883 -646.326)">
    <path id="Path_3482" data-name="Path 3482" d="M-1991.1-5202.736s45.1-149.415,178.822-101.954c0,0-.207,493.733-.18,491.976-125.365,37.687-259.29,54.937-290.108-98.583C-2145.545-5125.41-1991.1-5202.736-1991.1-5202.736Z" transform="translate(3181 5960.327)" fill="#f2f6ff"/>
    <path id="Path_3484" data-name="Path 3484" d="M215.922,26.549A19.034,19.034,0,0,0,234.955,7.515a19.034,19.034,0,0,0,19.034,19.034,19.034,19.034,0,0,0-19.034,19.034A19.034,19.034,0,0,0,215.922,26.549Z" transform="translate(999.856 758.755)" fill="#7ae262"/>
    <path id="Path_3485" data-name="Path 3485" d="M0,12.366A12.366,12.366,0,0,0,12.365,0,12.366,12.366,0,0,0,24.731,12.366,12.366,12.366,0,0,0,12.365,24.731,12.366,12.366,0,0,0,0,12.366Z" transform="matrix(0.966, 0.259, -0.259, 0.966, 1302.102, 857.121)" fill="#7ae262" opacity="0.7"/>
  </g>
</svg>
