<svg xmlns="http://www.w3.org/2000/svg" width="642" height="486" viewBox="0 0 642 486">
  <g id="Group_4826" data-name="Group 4826" transform="translate(113 -129)">
    <g id="Group_4440" data-name="Group 4440" transform="translate(237 -404)">
      <circle id="Ellipse_155" data-name="Ellipse 155" cx="243" cy="243" r="243" transform="translate(-350 533)" fill="#f2f6ff"/>
      <circle id="Ellipse_156" data-name="Ellipse 156" cx="142.5" cy="142.5" r="142.5" transform="translate(7 675)" fill="#f2f6ff"/>
      <circle id="Ellipse_158" data-name="Ellipse 158" cx="102" cy="102" r="102" transform="translate(-3 547)" fill="#f2f6ff"/>
    </g>
    <path id="Path_3486" data-name="Path 3486" d="M215.922,22.1A14.585,14.585,0,0,0,230.507,7.515,14.585,14.585,0,0,0,245.092,22.1a14.585,14.585,0,0,0-14.585,14.585A14.585,14.585,0,0,0,215.922,22.1Z" transform="translate(-170.973 194.706)" fill="#52d8d9"/>
    <path id="Path_3487" data-name="Path 3487" d="M0,14.585A14.585,14.585,0,0,0,14.585,0,14.585,14.585,0,0,0,29.17,14.585,14.585,14.585,0,0,0,14.585,29.17,14.585,14.585,0,0,0,0,14.585Z" transform="translate(94.153 332.468) rotate(-30)" fill="#52d8d9" opacity="0.6"/>
  </g>
</svg>
