<svg xmlns="http://www.w3.org/2000/svg" xmlns:xlink="http://www.w3.org/1999/xlink" width="356.659" height="333.169" viewBox="0 0 356.659 333.169">
  <defs>
    <linearGradient id="linear-gradient" x1="1" y1="0.5" x2="0" y2="0.5" gradientUnits="objectBoundingBox">
      <stop offset="0" stop-color="#4564ae"/>
      <stop offset="1" stop-color="#234ba8"/>
    </linearGradient>
  </defs>
  <g id="Group_4828" data-name="Group 4828" transform="translate(8.017 -1700)">
    <path id="Path_3521" data-name="Path 3521" d="M-942.409-3755.418s-19.586-19.4,32.5,0c33.521,12.486,86.235-36.112,122.909,12.685,93.078,123.847,72.993,112.933,156.994,127.317s25,124.386-61,134.386-93.054-19.362-168.232-4.383-83.171,19.583-83.171,19.583Z" transform="translate(938 5499)" fill="#f2f6ff"/>
    <g id="Group_275" data-name="Group 275" transform="translate(158.557 1709)">
      <ellipse id="Oval" cx="52.403" cy="7.116" rx="52.403" ry="7.116" transform="translate(8 205.854)" opacity="0.06" fill="url(#linear-gradient)"/>
      <g id="Group" transform="translate(113.69 213.361) rotate(180)">
        <path id="Shape" d="M26.494,39.7c1.169-5.638,2.677-7.7,1.989-13.413C27.6,18.922,23.691,12.248,19.333,6.2,16.69,2.53,12.316-1.417,8.189.5A8.692,8.692,0,0,0,4.6,4.315C-1.646,15.259.023,28.692.8,41.227c.531,8.612.584,17.424,3.5,25.556.977,2.722.826,3.164,2.972,5.129C7.272,71.912,25.23,45.812,26.494,39.7Z" transform="translate(82.389 173.324) rotate(180)" fill="#83cf72"/>
        <path id="Shape-2" data-name="Shape" d="M8.748,3.285c-3.437.976-7.107,2.4-8.748,5.4a54.89,54.89,0,0,0,7.438,8.756c4.139,3.954,9.569,7.487,15.441,6.913,5.93-.579,10.395-5.079,14.849-8.8,3.867-3.232,9.616-5.3,13.114-8.64C55.7,2.281,49.219,1.46,44.735.838A88.1,88.1,0,0,0,8.748,3.285Z" transform="translate(83.126 61.958) rotate(180)" fill="#4c78df"/>
        <path id="Shape-3" data-name="Shape" d="M24.232,166.5c5.486-6.765,33.619-17.289,39.9-23.336a56.845,56.845,0,0,0,17.3-40.545c-.024-18.14-8.839-35.4-9.092-53.537-.117-8.337,1.589-16.642,1.172-24.969S70.011,6.9,62.818,2.525c-10.362-6.31-24.864-.017-31.086,10.31S25.54,35.94,26.648,47.9s3.094,24.183.183,35.845C22.116,102.639,5.394,116.784.149,135.538c-2.014,7.2,17.07,22.319,17.281,29.783.237,8.475.625,19.607,4.4,27.225,5.3,10.688-8.4,15.1,2,3.156C30.857,187.637,16.353,176.22,24.232,166.5Z" transform="translate(81.433 222.361) rotate(180)" fill="#77e55e" opacity="0.82"/>
        <g id="Group_281" data-name="Group 281" transform="translate(20.465 46.083)">
          <path id="Shape-4" data-name="Shape" d="M30.923,0l-.857.151A83.763,83.763,0,0,1,18.974,58.319C17.789,60.233,16.5,62.149,15.25,64,11.734,69.216,8.1,74.61,6.346,80.727c-2.61,9.112-.787,18.688.974,27.95.462,2.423.937,4.928,1.322,7.371,2.967,18.805-.1,35.624-8.642,47.36l.707.5c8.673-11.918,11.8-28.96,8.8-47.99-.388-2.459-.864-4.969-1.327-7.4-1.742-9.164-3.545-18.64-.991-27.555,1.714-5.99,5.311-11.325,8.79-16.487,1.253-1.857,2.549-3.78,3.742-5.71A84.609,84.609,0,0,0,30.923,0Z" transform="translate(7.872 0)" fill="#373956" stroke="#878995" stroke-width="0.6"/>
          <path id="Shape-5" data-name="Shape" d="M16.3,0A106.147,106.147,0,0,1,0,15.764l.538.675A106.918,106.918,0,0,0,16.972.555Z" transform="translate(0.768 120.406)" fill="#373956" stroke="#878995" stroke-width="0.6"/>
          <path id="Shape-6" data-name="Shape" d="M.742,0,0,.45c1.371,2.194,3,4.9,4.639,7.612s3.273,5.423,4.646,7.621l.742-.45c-1.371-2.194-3-4.9-4.641-7.612S2.115,2.2.742,0Z" transform="translate(18.11 72.184)" fill="#373956" stroke="#878995" stroke-width="0.6"/>
          <path id="Shape-7" data-name="Shape" d="M33.612,0c-2.5,3.868-7.444,5.055-12.229,6.2l-1.293.314A70.4,70.4,0,0,0,0,14.917l.462.729A69.6,69.6,0,0,1,20.3,7.353l1.287-.313C26.31,5.908,31.661,4.622,34.346.461Z" transform="translate(3.256 33.665)" fill="#373956" stroke="#878995" stroke-width="0.6"/>
          <path id="Shape-8" data-name="Shape" d="M13.473,0A148.3,148.3,0,0,0,0,14.6l.683.534A147.357,147.357,0,0,1,14.077.622Z" transform="translate(0 98.257)" fill="#373956" stroke="#878995" stroke-width="0.6"/>
          <rect id="Rectangle-path" width="0.873" height="15.401" stroke-width="0.6" fill="#373956" stroke="#878995" transform="translate(16.975 139.101) rotate(-25.919)"/>
          <path id="Shape-9" data-name="Shape" d="M.807,0,0,.323A135.813,135.813,0,0,0,6.7,14.286l.765-.409A135.013,135.013,0,0,1,.807,0Z" transform="translate(30.633 52.008)" fill="#373956" stroke="#878995" stroke-width="0.6"/>
        </g>
        <path id="Shape-10" data-name="Shape" d="M0,4.431A76.164,76.164,0,0,0,52.842,0L43.509,57.565H14.633Z" transform="translate(83.335 57.565) rotate(180)" fill="#5b8cff"/>
        <path id="Shape-11" data-name="Shape" d="M1.228,8.119,0,3.66c.73.23,1.465.443,2.209.622A50.87,50.87,0,0,0,15.777,5.363a69.227,69.227,0,0,0,21.57-3.827C38.584,1.084,39.761.557,40.922,0l-.775,4.777c-.449.189-.9.38-1.352.558C26.865,10.054,13.229,12.52,1.228,8.119Z" transform="translate(75.912 29.836) rotate(180)" fill="#fff"/>
      </g>
    </g>
  </g>
</svg>
