<?xml version="1.0" encoding="iso-8859-1"?>
<!-- Generator: Adobe Illustrator 16.0.0, SVG Export Plug-In . SVG Version: 6.00 Build 0)  -->
<!DOCTYPE svg PUBLIC "-//W3C//DTD SVG 1.1//EN" "http://www.w3.org/Graphics/SVG/1.1/DTD/svg11.dtd">
<svg version="1.1" id="Capa_1" xmlns="http://www.w3.org/2000/svg" xmlns:xlink="http://www.w3.org/1999/xlink" x="0px" y="0px"
	 fill="#fff" width="33.374px" height="33.374px" viewBox="0 0 33.374 33.374" style="enable-background:new 0 0 33.374 33.374;"
	 xml:space="preserve">
<g>
	<g>
		<polygon points="29.975,10.357 32.632,5.754 27.318,5.754 		"/>
		<polygon points="25.988,5.754 20.674,5.754 23.331,10.357 		"/>
		<polygon points="19.344,5.754 14.03,5.754 16.687,10.357 		"/>
		<polygon points="10.043,10.357 12.701,5.754 7.386,5.754 		"/>
		<polygon points="0.742,5.754 3.399,10.357 6.056,5.754 		"/>
		<polygon points="4.063,10.741 9.378,10.741 6.721,6.138 		"/>
		<polygon points="10.708,10.741 16.022,10.741 13.365,6.138 		"/>
		<polygon points="20.009,6.138 17.352,10.741 22.666,10.741 		"/>
		<polygon points="23.996,10.741 29.311,10.741 26.652,6.138 		"/>
		<polygon points="26.652,16.111 29.311,11.508 23.996,11.508 		"/>
		<polygon points="22.666,11.508 17.352,11.508 20.009,16.111 		"/>
		<polygon points="13.365,16.111 16.022,11.508 10.708,11.508 		"/>
		<polygon points="4.063,11.508 6.721,16.111 9.378,11.508 		"/>
		<polygon points="12.701,16.495 10.043,11.892 7.386,16.495 		"/>
		<polygon points="16.687,11.892 14.03,16.495 19.344,16.495 		"/>
		<polygon points="20.674,16.495 25.988,16.495 23.331,11.892 		"/>
		<polygon points="29.311,0 23.996,0 26.652,4.604 		"/>
		<polygon points="22.666,0 17.352,0 20.009,4.604 		"/>
		<polygon points="16.022,0 10.708,0 13.365,4.604 		"/>
		<polygon points="9.378,0 4.063,0 6.721,4.604 		"/>
		<polygon points="3.399,0.384 0.742,4.987 6.056,4.987 		"/>
		<polygon points="12.701,4.987 10.043,0.384 7.386,4.987 		"/>
		<polygon points="19.344,4.987 16.687,0.384 14.03,4.987 		"/>
		<polygon points="25.988,4.987 23.331,0.384 20.674,4.987 		"/>
		<polygon points="32.632,4.987 29.975,0.384 27.318,4.987 		"/>
		<polygon points="23.331,21.866 25.988,17.262 20.674,17.262 		"/>
		<polygon points="19.344,17.262 14.03,17.262 16.687,21.866 		"/>
		<polygon points="7.386,17.262 10.043,21.866 12.701,17.262 		"/>
		<polygon points="16.022,22.249 13.365,17.646 10.708,22.249 		"/>
		<polygon points="17.352,22.249 22.666,22.249 20.009,17.646 		"/>
		<polygon points="20.009,27.62 22.666,23.018 17.352,23.018 		"/>
		<polygon points="10.708,23.018 13.365,27.62 16.022,23.018 		"/>
		<polygon points="14.03,28.003 19.344,28.003 16.687,23.4 		"/>
		<polygon points="16.687,33.374 19.344,28.77 14.03,28.77 		"/>
	</g>
</g>
<g>
</g>
<g>
</g>
<g>
</g>
<g>
</g>
<g>
</g>
<g>
</g>
<g>
</g>
<g>
</g>
<g>
</g>
<g>
</g>
<g>
</g>
<g>
</g>
<g>
</g>
<g>
</g>
<g>
</g>
</svg>
